<svg xmlns="http://www.w3.org/2000/svg" viewBox="0 0 128 128"><title>icon11.1glyph</title><g id="food"><path d="M69,20.42a3.16,3.16,0,0,0-3.16-3.15h-.34a3.15,3.15,0,0,0-3.16,3.15v3.49H69Z"/><path d="M65.42,28.4A36.27,36.27,0,0,0,29.25,62.63h72.34A36.27,36.27,0,0,0,65.42,28.4Z"/><rect x="18.51" y="106.9" width="29.94" height="9.66"/><rect x="26.92" y="66.63" width="77" height="3.15" rx="1"/><path d="M96.11,80.85a70.59,70.59,0,0,0-9.61,3.78l-2,.91c-3.41,1.5-12.12,1.31-26.08.8-8.14-.29-16.56-.59-22.52-.22-12.25.77-12.36,11-12.36,11.61l.11,5.17H43.86c1.09-3.14,4.37-7.14,11.77-7.14,9.7,0,24.08-2,30.1-4.76,4.62-2.16,9.09-7.15,10.89-9.35A.5.5,0,0,0,96.11,80.85Z"/><path d="M107.92,69.65v.21A3.93,3.93,0,0,1,104,73.78H26.84a3.93,3.93,0,0,1-3.92-3.92V69C11.55,71.33,9.16,73.88,9.16,74.47c0,.91,4.91,5.11,27.59,7.5a1.53,1.53,0,0,1,.37.08h0c6-.26,13.8,0,21.39.3,10.08.36,21.5.77,24.31-.47l2-.9c7.08-3.18,12-5.19,15.09-4.12a2.76,2.76,0,0,1,1.93,2.54,3.44,3.44,0,0,1-.15,1.15c14.09-2.41,17.11-5.36,17.11-6.08C118.84,74,116.92,71.79,107.92,69.65Z"/><path d="M82.93,24.29A2,2,0,0,1,83,21.46a2.34,2.34,0,0,0,.76-1.71A2.37,2.37,0,0,0,83,18l-.88-.82a6.28,6.28,0,0,1,0-9.24,2,2,0,1,1,2.74,2.91,2.28,2.28,0,0,0,0,3.41l.88.83a6.3,6.3,0,0,1,0,9.24A2.12,2.12,0,0,1,82.93,24.29Z"/><path d="M92.55,24.29a2,2,0,0,1,.08-2.83,2.34,2.34,0,0,0,.76-1.71A2.37,2.37,0,0,0,92.63,18l-.88-.82a6.3,6.3,0,0,1,0-9.24,2,2,0,0,1,2.75,2.91,2.29,2.29,0,0,0,0,3.41l.88.83a6.3,6.3,0,0,1,0,9.24A2.14,2.14,0,0,1,92.55,24.29Z"/><path d="M36.27,24.29a2,2,0,0,1,.08-2.83,2.34,2.34,0,0,0,.76-1.71A2.37,2.37,0,0,0,36.35,18l-.88-.82a6.28,6.28,0,0,1,0-9.24,2,2,0,0,1,2.75,2.91,2.31,2.31,0,0,0-.77,1.71,2.37,2.37,0,0,0,.77,1.7l.88.83a6.3,6.3,0,0,1,0,9.24A2.29,2.29,0,0,1,36.27,24.29Z"/><path d="M45.89,24.29A2.06,2.06,0,0,1,46,21.46a2.31,2.31,0,0,0,.77-1.71A2.38,2.38,0,0,0,46,18l-.88-.82a6.3,6.3,0,0,1,0-9.24,2,2,0,0,1,2.75,2.91,2.29,2.29,0,0,0,0,3.41l.88.83a6.28,6.28,0,0,1,0,9.24A2,2,0,0,1,45.89,24.29Z"/></g></svg>